<svg width="150" height="150" viewBox="0 0 150 150" fill="none" xmlns="http://www.w3.org/2000/svg">
<path d="M35.1563 44.5312C35.1563 35.8288 38.6134 27.4828 44.7669 21.3293C50.9204 15.1758 59.2664 11.7187 67.9688 11.7188C76.6713 11.7187 85.0172 15.1758 91.1708 21.3293C97.3243 27.4828 100.781 35.8288 100.781 44.5312C100.781 45.1529 100.534 45.749 100.095 46.1885C99.6553 46.6281 99.0592 46.875 98.4376 46.875C97.816 46.875 97.2199 46.6281 96.7803 46.1885C96.3408 45.749 96.0938 45.1529 96.0938 44.5312C96.0938 37.072 93.1307 29.9183 87.8562 24.6439C82.5818 19.3694 75.4281 16.4063 67.9688 16.4062C60.5096 16.4063 53.3559 19.3694 48.0815 24.6439C42.807 29.9183 39.8438 37.072 39.8438 44.5312C39.8438 45.1529 39.5969 45.749 39.1574 46.1885C38.7178 46.6281 38.1217 46.875 37.5001 46.875C36.8785 46.875 36.2824 46.6281 35.8428 46.1885C35.4033 45.749 35.1563 45.1529 35.1563 44.5312ZM114.844 72.6562C111.363 72.652 108.006 73.9452 105.428 76.2832C105.228 73.6674 104.3 71.1596 102.75 69.0434C101.199 66.9272 99.0876 65.2869 96.6537 64.308C94.2197 63.329 91.5604 63.0504 88.9764 63.5037C86.3924 63.957 83.9868 65.1241 82.0313 66.873V44.5312C82.0313 40.8016 80.5498 37.2248 77.9125 34.5876C75.2753 31.9503 71.6985 30.4688 67.9688 30.4688C64.2392 30.4688 60.6624 31.9503 58.0252 34.5876C55.3879 37.2248 53.9063 40.8016 53.9063 44.5312V99.6094L47.3087 89.0273C45.3944 85.8916 42.329 83.6295 38.7682 82.7249C35.2074 81.8204 31.434 82.3453 28.2553 84.1873C25.0765 86.0293 22.7449 89.0422 21.7591 92.5814C20.7733 96.1205 21.2118 99.9049 22.9806 103.125L40.1603 132.422C40.4951 132.908 41.0007 133.249 41.5763 133.378C42.1519 133.508 42.7551 133.415 43.2654 133.119C43.7758 132.824 44.1558 132.346 44.3297 131.782C44.5035 131.219 44.4583 130.61 44.2032 130.078L27.0294 100.781C25.7862 98.6274 25.4495 96.0679 26.0934 93.6658C26.7374 91.2638 28.3091 89.2159 30.463 87.9727C32.6168 86.7295 35.1763 86.3928 37.5784 87.0367C39.9805 87.6806 42.0284 89.2524 43.2716 91.4062L43.3126 91.4766L54.2579 109.055C54.5267 109.488 54.9298 109.823 55.4059 110.006C55.8819 110.19 56.405 110.214 56.8956 110.073C57.3862 109.933 57.8175 109.636 58.124 109.228C58.4305 108.82 58.5955 108.323 58.5938 107.812V44.5312C58.5938 42.0448 59.5816 39.6603 61.3397 37.9021C63.0979 36.144 65.4824 35.1562 67.9688 35.1562C70.4552 35.1562 72.8398 36.144 74.598 37.9021C76.3561 39.6603 77.3438 42.0448 77.3438 44.5312V84.375C77.3438 84.9966 77.5908 85.5927 78.0303 86.0323C78.4698 86.4718 79.066 86.7188 79.6876 86.7188C80.3092 86.7188 80.9053 86.4718 81.3449 86.0323C81.7844 85.5927 82.0313 84.9966 82.0313 84.375V77.3438C82.0313 74.8573 83.0191 72.4728 84.7772 70.7146C86.5354 68.9565 88.9199 67.9688 91.4063 67.9688C93.8927 67.9688 96.2773 68.9565 98.0355 70.7146C99.7936 72.4728 100.781 74.8573 100.781 77.3438V89.0625C100.781 89.6841 101.028 90.2802 101.468 90.7198C101.907 91.1593 102.503 91.4062 103.125 91.4062C103.747 91.4062 104.343 91.1593 104.782 90.7198C105.222 90.2802 105.469 89.6841 105.469 89.0625V86.7188C105.469 84.2323 106.457 81.8478 108.215 80.0896C109.973 78.3315 112.357 77.3438 114.844 77.3438C117.33 77.3438 119.715 78.3315 121.473 80.0896C123.231 81.8478 124.219 84.2323 124.219 86.7188V107.812C124.219 121.09 119.818 130.113 119.777 130.201C119.64 130.477 119.557 130.777 119.535 131.084C119.513 131.391 119.552 131.7 119.65 131.992C119.747 132.284 119.901 132.554 120.103 132.787C120.305 133.02 120.551 133.21 120.826 133.348C121.152 133.509 121.511 133.593 121.875 133.594C122.311 133.594 122.737 133.473 123.108 133.244C123.478 133.016 123.778 132.688 123.973 132.299C124.172 131.895 128.906 122.262 128.906 107.812V86.7188C128.906 82.9891 127.425 79.4123 124.788 76.7751C122.15 74.1378 118.573 72.6562 114.844 72.6562Z" fill="white"/>
</svg>
